<?xml version="1.0" standalone="no"?>
<!DOCTYPE svg PUBLIC "-//W3C//DTD SVG 20010904//EN"
 "http://www.w3.org/TR/2001/REC-SVG-20010904/DTD/svg10.dtd">
<svg version="1.0" xmlns="http://www.w3.org/2000/svg"
 width="512.000000pt" height="512.000000pt" viewBox="0 0 512.000000 512.000000"
 preserveAspectRatio="xMidYMid meet">
<metadata>
Created by potrace 1.11, written by Peter Selinger 2001-2013
</metadata>
<g transform="translate(0.000000,512.000000) scale(0.100000,-0.100000)"
fill="#000000" stroke="none">
<path d="M787 4579 c-64 -15 -133 -56 -176 -106 -22 -26 -41 -54 -41 -60 0 -7
-5 -13 -12 -13 -6 0 -8 -3 -5 -6 3 -4 2 -14 -3 -24 -12 -22 -27 -204 -20 -232
2 -9 3 -35 1 -74 -1 -17 -5 -23 -13 -19 -7 4 -6 1 2 -7 12 -10 15 -39 13 -148
-1 -74 -2 -161 -2 -193 -1 -43 -4 -57 -13 -52 -7 4 -6 1 2 -7 12 -10 15 -34
13 -108 -1 -52 -2 -121 -2 -153 -1 -43 -4 -57 -13 -52 -7 4 -6 1 2 -7 8 -7 14
-24 14 -38 -1 -14 -3 -41 -4 -60 -1 -19 -1 -37 0 -40 1 -3 3 -26 3 -53 2 -37
-1 -46 -12 -42 -11 4 -11 3 -2 -9 10 -11 13 -116 12 -424 0 -225 -1 -413 -2
-418 -1 -5 0 -11 1 -14 1 -3 3 -26 3 -53 2 -37 -1 -46 -12 -42 -11 4 -11 3 -2
-9 8 -10 12 -59 12 -148 1 -238 0 -250 -13 -243 -7 4 -6 1 2 -7 12 -10 15 -34
13 -108 -1 -52 -2 -121 -2 -153 -1 -43 -4 -57 -13 -52 -7 4 -6 1 2 -7 8 -7 14
-24 14 -38 -1 -14 -3 -41 -4 -60 -1 -19 -1 -37 0 -40 1 -3 3 -26 3 -53 2 -37
-1 -46 -12 -42 -11 4 -11 3 -2 -9 8 -10 12 -66 13 -177 0 -100 6 -181 14 -212
7 -28 11 -54 8 -59 -3 -5 0 -7 8 -6 7 2 12 -5 12 -14 -1 -10 2 -18 8 -18 5 0
6 -5 3 -10 -4 -6 -1 -9 7 -8 7 2 12 -3 11 -9 -2 -7 3 -12 10 -10 6 1 11 -5 9
-13 -2 -8 0 -12 4 -7 4 4 14 1 23 -7 20 -17 111 -68 111 -62 0 3 14 1 30 -4
32 -9 266 -17 274 -9 2 2 32 2 65 1 43 -3 59 -7 54 -15 -5 -8 -2 -8 8 0 11 9
63 12 183 12 92 -1 168 0 170 2 3 2 32 2 65 1 43 -3 59 -7 54 -15 -5 -9 -2 -8
8 0 22 17 963 17 952 0 -5 -9 -3 -9 8 0 11 9 63 12 183 12 92 -1 168 0 170 2
3 2 32 2 65 1 43 -3 59 -7 54 -15 -5 -8 -2 -8 8 0 11 9 63 12 183 12 92 -1
168 0 170 2 3 2 32 2 65 1 43 -3 59 -7 54 -15 -5 -9 -3 -9 8 0 11 9 108 12
354 13 368 2 401 3 411 13 12 12 26 8 18 -5 -4 -7 -3 -8 5 -4 6 4 9 12 6 17
-6 8 2 11 21 8 4 0 10 4 13 9 3 6 13 12 20 14 17 4 94 87 113 120 6 13 13 32
15 43 2 10 10 30 18 42 9 13 12 23 8 23 -5 0 -7 782 -6 1738 1 1174 -2 1754
-9 1787 -21 98 -86 178 -181 221 l-62 29 -1755 1 c-965 1 -1772 -2 -1793 -7z"/>
<path d="M695 540 c-3 -5 -1 -10 4 -10 6 0 11 5 11 10 0 6 -2 10 -4 10 -3 0
-8 -4 -11 -10z"/>
<path d="M4415 540 c3 -5 8 -10 11 -10 2 0 4 5 4 10 0 6 -5 10 -11 10 -5 0 -7
-4 -4 -10z"/>
<path d="M1295 511 c-3 -5 -2 -12 3 -15 5 -3 9 1 9 9 0 17 -3 19 -12 6z"/>
<path d="M1373 505 c0 -8 4 -12 9 -9 5 3 6 10 3 15 -9 13 -12 11 -12 -6z"/>
<path d="M1775 511 c-3 -5 -2 -12 3 -15 5 -3 9 1 9 9 0 17 -3 19 -12 6z"/>
<path d="M1853 505 c0 -8 4 -12 9 -9 5 3 6 10 3 15 -9 13 -12 11 -12 -6z"/>
<path d="M2735 511 c-3 -5 -2 -12 3 -15 5 -3 9 1 9 9 0 17 -3 19 -12 6z"/>
<path d="M2813 505 c0 -8 4 -12 9 -9 5 3 6 10 3 15 -9 13 -12 11 -12 -6z"/>
<path d="M3215 511 c-3 -5 -2 -12 3 -15 5 -3 9 1 9 9 0 17 -3 19 -12 6z"/>
<path d="M3293 505 c0 -8 4 -12 9 -9 5 3 6 10 3 15 -9 13 -12 11 -12 -6z"/>
<path d="M3695 511 c-3 -5 -2 -12 3 -15 5 -3 9 1 9 9 0 17 -3 19 -12 6z"/>
<path d="M3773 505 c0 -8 4 -12 9 -9 5 3 6 10 3 15 -9 13 -12 11 -12 -6z"/>
<path d="M765 500 c-3 -6 1 -7 9 -4 18 7 21 14 7 14 -6 0 -13 -4 -16 -10z"/>
<path d="M975 500 c3 -5 8 -10 11 -10 2 0 4 5 4 10 0 6 -5 10 -11 10 -5 0 -7
-4 -4 -10z"/>
<path d="M1250 499 c0 -5 5 -7 10 -4 6 3 10 8 10 11 0 2 -4 4 -10 4 -5 0 -10
-5 -10 -11z"/>
<path d="M1455 500 c3 -5 8 -10 11 -10 2 0 4 5 4 10 0 6 -5 10 -11 10 -5 0 -7
-4 -4 -10z"/>
<path d="M1730 499 c0 -5 5 -7 10 -4 6 3 10 8 10 11 0 2 -4 4 -10 4 -5 0 -10
-5 -10 -11z"/>
<path d="M1970 499 c0 -5 5 -7 10 -4 6 3 10 8 10 11 0 2 -4 4 -10 4 -5 0 -10
-5 -10 -11z"/>
<path d="M2130 499 c0 -5 5 -7 10 -4 6 3 10 8 10 11 0 2 -4 4 -10 4 -5 0 -10
-5 -10 -11z"/>
<path d="M2175 500 c3 -5 8 -10 11 -10 2 0 4 5 4 10 0 6 -5 10 -11 10 -5 0 -7
-4 -4 -10z"/>
<path d="M2290 499 c0 -5 5 -7 10 -4 6 3 10 8 10 11 0 2 -4 4 -10 4 -5 0 -10
-5 -10 -11z"/>
<path d="M2450 499 c0 -5 5 -7 10 -4 6 3 10 8 10 11 0 2 -4 4 -10 4 -5 0 -10
-5 -10 -11z"/>
<path d="M2690 499 c0 -5 5 -7 10 -4 6 3 10 8 10 11 0 2 -4 4 -10 4 -5 0 -10
-5 -10 -11z"/>
<path d="M2895 500 c3 -5 8 -10 11 -10 2 0 4 5 4 10 0 6 -5 10 -11 10 -5 0 -7
-4 -4 -10z"/>
<path d="M3170 499 c0 -5 5 -7 10 -4 6 3 10 8 10 11 0 2 -4 4 -10 4 -5 0 -10
-5 -10 -11z"/>
<path d="M3375 500 c3 -5 8 -10 11 -10 2 0 4 5 4 10 0 6 -5 10 -11 10 -5 0 -7
-4 -4 -10z"/>
<path d="M3650 499 c0 -5 5 -7 10 -4 6 3 10 8 10 11 0 2 -4 4 -10 4 -5 0 -10
-5 -10 -11z"/>
<path d="M3890 499 c0 -5 5 -7 10 -4 6 3 10 8 10 11 0 2 -4 4 -10 4 -5 0 -10
-5 -10 -11z"/>
<path d="M4050 499 c0 -5 5 -7 10 -4 6 3 10 8 10 11 0 2 -4 4 -10 4 -5 0 -10
-5 -10 -11z"/>
<path d="M4210 499 c0 -5 5 -7 10 -4 6 3 10 8 10 11 0 2 -4 4 -10 4 -5 0 -10
-5 -10 -11z"/>
<path d="M4335 501 c-3 -5 -2 -12 3 -15 5 -3 9 1 9 9 0 17 -3 19 -12 6z"/>
<path d="M1670 436 c7 -7 13 -7 20 0 6 6 3 10 -10 10 -13 0 -16 -4 -10 -10z"/>
<path d="M2630 436 c7 -7 13 -7 20 0 6 6 3 10 -10 10 -13 0 -16 -4 -10 -10z"/>
<path d="M3590 436 c7 -7 13 -7 20 0 6 6 3 10 -10 10 -13 0 -16 -4 -10 -10z"/>
</g>
</svg>
